#!OML:ASF H:\ManfredETheater\Project 1\Capture day 1\Session 1\subject.ASF
:FULLY-SPECIFIED
:DEGREES
304
root 1.04008 17.4327 -40.588 196.543 -5.00656 -181.468
lowerback 15.5771 0.201544 -0.51904
upperback -2.95004 0.32895 1.57709
thorax -12.0585 0.253742 1.94851
lowerneck -17.8114 -4.53689 -4.7337
upperneck 11.1736 -5.31509 2.34442
head 6.4905 -2.57386 0.94552
rclavicle 8.74653e-015 2.78299e-014
rhumerus -34.7175 3.99379 -84.0365
rradius 65.0045
rwrist -4.08787
rhand -26.6578 -0.607588
rfingers 7.12502
rthumb -0.0895707 -30.5873
lclavicle 8.74653e-015 2.78299e-014
lhumerus -37.9708 -5.99172 87.1304
lradius 73.664
lwrist 4.77027
lhand -23.3601 -6.38325
lfingers 7.12502
lthumb 3.09535 23.574
rfemur -22.1514 -7.2167 16.9804
rtibia 42.9222
rfoot -22.3251 -17.2794
rtoes -29.8876
lfemur -34.6222 2.58421 -14.7978
ltibia 62.5197
lfoot -22.9357 -1.28971
ltoes 2.76464
305
root 1.044 17.3682 -40.7024 196.708 -5.50832 -181.282
lowerback 15.4775 0.0968115 -0.594234
upperback -2.84929 0.172237 1.57312
thorax -11.8791 0.183189 2.0247
lowerneck -17.7665 -4.61243 -4.67355
upperneck 10.9947 -5.48168 2.69314
head 6.43995 -2.62174 1.03202
rclavicle -1.55052e-014 -2.14687e-014
rhumerus -35.8061 4.27454 -84.1082
rradius 65.5595
rwrist -4.14959
rhand -26.8787 -0.313225
rfingers 7.12502
rthumb -0.302927 -30.2928
lclavicle -1.55052e-014 -2.14687e-014
lhumerus -38.0218 -6.24878 87.2206
lradius 74.3044
lwrist 4.5727
lhand -23.4953 -6.66431
lfingers 7.12502
lthumb 2.96479 23.2948
rfemur -22.4821 -7.56269 17.3441
rtibia 44.2399
rfoot -22.7192 -17.549
rtoes -30.7823
lfemur -34.5011 2.9356 -14.5791
ltibia 64.2291
lfoot -22.0645 -2.28405
ltoes 2.36183
306
root 1.0467 17.2983 -40.8217 196.861 -6.01282 -181.147
lowerback 15.3265 -0.0214622 -0.702528
upperback -2.71547 -0.0119064 1.5384
thorax -11.6306 0.0995748 2.09084
lowerneck -17.7238 -4.69514 -4.63827
upperneck 10.8013 -5.66047 3.10203
head 6.38893 -2.67269 1.1403
rclavicle 1.74931e-014 1.03368e-014
rhumerus -36.9388 4.42828 -84.2017
rradius 66.0486
rwrist -4.20677
rhand -27.0054 -0.048957
rfingers 7.12502
rthumb -0.42535 -30.0283
lclavicle 1.74931e-014 1.03368e-014
lhumerus -37.9803 -6.47467 87.2923
lradius 74.9637
lwrist 4.40083
lhand -23.6717 -6.92709
lfingers 7.12502
lthumb 2.79439 23.0344
rfemur -22.916 -8.02021 17.6426
rtibia 45.8368
rfoot -23.0701 -17.7046
rtoes -31.9055
lfemur -34.1506 3.15489 -14.3809
ltibia 65.4956
lfoot -21.2169 -3.65871
ltoes 1.90478
307
root 1.04889 17.2233 -40.944 197.009 -6.47821 -181.086
lowerback 15.1748 -0.138651 -0.883185
upperback -2.56281 -0.211166 1.46755
thorax -11.36 0.0113892 2.16071
lowerneck -17.6861 -4.7808 -4.6361
upperneck 10.5975 -5.84242 3.56117
head 6.33911 -2.72378 1.26931
rclavicle -2.42517e-014 -2.14687e-014
rhumerus -38.1179 4.44594 -84.3132
rradius 66.4578
rwrist -4.28707
rhand -27.0412 0.179154
rfingers 7.12502
rthumb -0.459906 -29.8001
lclavicle -2.42517e-014 -2.14687e-014
lhumerus -37.8572 -6.67713 87.3484
lradius 75.6639
lwrist 4.27945
lhand -23.883 -7.16117
lfingers 7.12502
lthumb 2.59039 22.8029
rfemur -23.4817 -8.54793 17.8489
rtibia 47.7317
rfoot -23.3233 -17.7597
rtoes -33.2009
lfemur -33.5684 3.26125 -14.2394
ltibia 66.2253
lfoot -20.5384 -5.10164
ltoes 1.30448
